<?xml version="1.0" encoding="utf-8"?>

<!DOCTYPE svg PUBLIC "-//W3C//DTD SVG 1.1//EN" "http://www.w3.org/Graphics/SVG/1.1/DTD/svg11.dtd">
<!-- Uploaded to: SVG Repo, www.svgrepo.com, Generator: SVG Repo Mixer Tools -->
<svg version="1.1" id="_x32_" xmlns="http://www.w3.org/2000/svg" xmlns:xlink="http://www.w3.org/1999/xlink" 
	 viewBox="0 0 512 512"  xml:space="preserve">
<style type="text/css">
	.st0{fill:#000000;}
</style>
<g>
	<path class="st0" d="M269.836,391.431c-5.59,1.27-11.917,1.926-18.718,2.234H58.048h-0.07c-0.306,0-0.613,0-0.927,0
		c-12.617,0.007-24.009-3.152-32.62-8.188l-7.502,12.852c11.158,6.509,25.038,10.216,40.122,10.223c0.361,0,0.73,0,1.105-0.007
		h193.322l0.157-0.008c7.389-0.321,14.598-1.029,21.48-2.583c6.874-1.554,13.457-3.977,19.36-7.808l-8.104-12.486
		C280.319,388.285,275.466,390.161,269.836,391.431z"/>
	<path class="st0" d="M175.76,132.209v28.153h16.204v-28.153c0-5.327-3.631-9.64-8.104-9.64
		C179.39,122.569,175.76,126.882,175.76,132.209z"/>
	<path class="st0" d="M457.44,248.714l43.993-96.809c0.891-1.948,1.336-4.05,1.336-6.13c0-2.802-0.795-5.597-2.357-8.034
		c-2.737-4.232-7.429-6.794-12.475-6.794h-30.08c-8.98,0-17.441,4.226-22.834,11.414l-39.162,52.214
		c-1.58,2.116-4.068,3.357-6.707,3.357h-71.537l-15.376-16.288c-10.374-10.982-24.812-17.207-39.921-17.207h-101.96
		c-30.452,0-58.971,14.923-76.328,39.954l-43.402,62.576c-10.709,0.963-20.378,5.714-27.548,12.887
		C5.01,287.909-0.004,299.125,0,311.435v3.715c-0.004,12.318,5.01,23.52,13.081,31.576c8.056,8.071,19.265,13.092,31.58,13.084
		h28.176h68.851h98.611c22.061,0,42.848-10.29,56.235-27.818l33.2-43.507l98.257-17.346
		C440.94,269.074,452.008,260.667,457.44,248.714z M425.47,256.471l-104.044,18.368l-36.725,48.119
		c-10.566,13.844-26.982,21.966-44.402,21.966h-98.611H72.837H44.661c-8.25-0.008-15.643-3.32-21.054-8.721
		c-5.4-5.407-8.713-12.807-8.72-21.053v-3.715c0.007-8.253,3.32-15.646,8.72-21.053c5.411-5.4,12.804-8.72,21.054-8.72h3.896
		l47.704-68.786c14.577-21.017,38.524-33.554,64.098-33.554h101.96c11.016,0,21.538,4.539,29.098,12.544l19.792,20.944h77.944
		c7.327,0,14.223-3.444,18.616-9.304l39.166-52.214c2.576-3.438,6.63-5.466,10.921-5.466h29.993l-43.96,96.729
		c-3.379,7.428-10.272,12.646-18.332,13.901L425.47,256.471z"/>
	<path class="st0" d="M162.778,201.835h-2.142c-18.612,0-36.068,9.136-46.682,24.432l-22.009,31.744
		c-1.916,2.759-2.134,6.349-0.58,9.326c1.558,2.97,4.63,4.838,7.987,4.838h60.102c5.243,0,9.494-4.254,9.494-9.494v-54.673
		C168.948,204.607,166.186,201.835,162.778,201.835z"/>
	<path class="st0" d="M234.074,201.835h-28.176c-5.243,0-9.494,4.254-9.494,9.494v51.352c0,5.24,4.251,9.494,9.494,9.494h28.176
		c5.24,0,9.49-4.254,9.49-9.494v-51.352C243.565,206.089,239.314,201.835,234.074,201.835z"/>
	<path class="st0" d="M496.384,221.844c-1.631-1.642-3.383-3.16-5.214-4.568l-5.378,11.822c0.587,0.518,1.164,1.05,1.722,1.612
		c7.389,7.393,11.932,17.55,11.939,28.825c-0.008,11.282-4.55,21.44-11.939,28.84c-7.399,7.385-17.554,11.939-28.835,11.939
		c-11.278,0-21.433-4.554-28.832-11.939c-0.493-0.496-0.978-1.014-1.449-1.539l-13.963,2.466c1.926,2.86,4.123,5.517,6.542,7.94
		c9.629,9.64,23.002,15.624,37.703,15.617c14.704,0.007,28.077-5.977,37.706-15.617c9.636-9.626,15.624-23.002,15.616-37.706
		C512.008,244.839,506.02,231.463,496.384,221.844z"/>
	<rect x="7.097" y="103.449" class="st0" width="352.29" height="12.836"/>
</g>
</svg>